<?xml version="1.0" encoding="iso-8859-1"?>
<!-- Generator: Adobe Illustrator 19.0.0, SVG Export Plug-In . SVG Version: 6.00 Build 0)  -->
<svg version="1.1" id="Capa_1" xmlns="http://www.w3.org/2000/svg" xmlns:xlink="http://www.w3.org/1999/xlink" x="0px" y="0px"
	 viewBox="0 0 512 512" style="enable-background:new 0 0 512 512;" xml:space="preserve">
<g>
	<g>
		<path d="M506.96,248.41c-2.035-2.056-4.91-3.261-7.802-3.261H265.856V11.847c0-5.99-4.861-10.851-10.851-10.851H119.364
			C53.546,0.996,0,54.541,0,120.359v271.281c0,65.818,53.546,119.364,119.364,119.364h272.909
			c65.227,0,118.772-53.014,119.364-118.186C512.787,254.286,511.202,252.685,506.96,248.41z M489.934,392.628
			c-0.483,53.307-44.295,96.674-97.661,96.674H119.364c-53.849,0-97.661-43.812-97.661-97.661V120.359
			c0-53.849,43.812-97.661,97.661-97.661h124.789v222.451H65.107c-5.99,0-10.851,4.861-10.851,10.851
			c0,5.99,4.861,10.851,10.851,10.851h179.046v179.046c0,5.99,4.861,10.851,10.851,10.851c5.99,0,10.851-4.861,10.851-10.851
			V266.851h223.655C490.167,282.461,490.525,321.08,489.934,392.628z"/>
	</g>
</g>
<g>
	<g>
		<path d="M390.645,0.996h-54.256c-5.99,0-10.851,4.861-10.851,10.851c0,5.99,4.861,10.851,10.851,10.851h54.256
			c53.849,0,97.661,43.812,97.661,97.661v54.256c0,5.99,4.861,10.851,10.851,10.851s10.851-4.856,10.851-10.851v-54.256
			C510.009,54.541,456.463,0.996,390.645,0.996z"/>
	</g>
</g>
<g>
</g>
<g>
</g>
<g>
</g>
<g>
</g>
<g>
</g>
<g>
</g>
<g>
</g>
<g>
</g>
<g>
</g>
<g>
</g>
<g>
</g>
<g>
</g>
<g>
</g>
<g>
</g>
<g>
</g>
</svg>
