<svg width="82" height="68" viewBox="0 0 82 68" version="1.1" xmlns="http://www.w3.org/2000/svg" xmlns:xlink="http://www.w3.org/1999/xlink">
<title>logo</title>
<desc>Created using Figma</desc>
<g id="Canvas" transform="translate(35 -31)">
<g id="logo">
<g id="Ellipse">
<use xlink:href="#path0_fill" transform="matrix(1 2.77556e-17 -2.77556e-17 1 -27.5 31)" fill="url(#paint0_linear)"/>
</g>
<g id="Pinterest">
<use xlink:href="#path1_fill" transform="translate(-35 50)" fill="#FFFFFF"/>
</g>
</g>
</g>
<defs>
<linearGradient id="paint0_linear" x1="0" y1="0" x2="1" y2="0" gradientUnits="userSpaceOnUse" gradientTransform="matrix(4.1638e-15 68 -68 4.1638e-15 68 -4.1638e-15)">
<stop offset="0" stop-color="#ED8344"/>
<stop offset="1" stop-color="#ED8344" stop-opacity="0"/>
</linearGradient>
<path id="path0_fill" d="M 68 34C 68 52.7777 52.7777 68 34 68C 15.2223 68 0 52.7777 0 34C 0 15.2223 15.2223 0 34 0C 52.7777 0 68 15.2223 68 34Z"/>
<path id="path1_fill" d="M 5.52 8.736L 9.072 8.256L 7.368 16.272C 8.136 16.208 8.84 15.872 9.48 15.264C 10.136 14.656 10.648 13.904 11.016 13.008C 11.384 12.112 11.568 11.232 11.568 10.368C 11.568 9.408 11.32 8.624 10.824 8.016C 10.328 7.408 9.584 7.104 8.592 7.104C 6.64 7.104 5.112 7.616 4.008 8.64C 2.92 9.664 2.376 11.096 2.376 12.936C 2.376 13.528 2.432 13.944 2.544 14.184C 2.656 14.408 2.712 14.536 2.712 14.568C 1.848 14.568 1.2 14.392 0.768 14.04C 0.352 13.672 0.144 13.072 0.144 12.24C 0.144 11.216 0.56 10.224 1.392 9.264C 2.24 8.288 3.32 7.504 4.632 6.912C 5.944 6.304 7.256 6 8.568 6C 9.832 6 10.888 6.216 11.736 6.648C 12.584 7.08 13.208 7.656 13.608 8.376C 14.024 9.08 14.232 9.864 14.232 10.728C 14.232 11.768 13.944 12.784 13.368 13.776C 12.808 14.768 12 15.584 10.944 16.224C 9.888 16.848 8.672 17.16 7.296 17.16L 7.176 17.16L 5.712 24L 2.256 24L 5.52 8.736ZM 17.7658 10.704C 17.2378 10.704 16.7898 10.52 16.4218 10.152C 16.0538 9.784 15.8698 9.336 15.8698 8.808C 15.8698 8.28 16.0538 7.832 16.4218 7.464C 16.7898 7.08 17.2378 6.888 17.7658 6.888C 18.2938 6.888 18.7418 7.08 19.1098 7.464C 19.4938 7.832 19.6858 8.28 19.6858 8.808C 19.6858 9.336 19.4938 9.784 19.1098 10.152C 18.7418 10.52 18.2938 10.704 17.7658 10.704ZM 16.1338 24.144C 15.3658 24.144 14.7418 23.904 14.2618 23.424C 13.7978 22.944 13.5658 22.224 13.5658 21.264C 13.5658 20.864 13.6298 20.344 13.7578 19.704L 15.3898 12L 18.8458 12L 17.1178 20.16C 17.0538 20.4 17.0218 20.656 17.0218 20.928C 17.0218 21.248 17.0938 21.48 17.2378 21.624C 17.3978 21.752 17.6538 21.816 18.0058 21.816C 18.4698 21.816 18.9018 21.624 19.3018 21.24C 19.7018 20.84 19.9898 20.328 20.1658 19.704L 21.1738 19.704C 20.5818 21.432 19.8218 22.608 18.8938 23.232C 17.9658 23.84 17.0458 24.144 16.1338 24.144ZM 28.8203 24.144C 27.8442 24.144 27.1242 23.888 26.6602 23.376C 26.2123 22.848 25.9883 22.2 25.9883 21.432C 25.9883 21.096 26.0282 20.72 26.1082 20.304C 26.1882 19.872 26.2682 19.456 26.3482 19.056C 26.4442 18.656 26.5083 18.4 26.5403 18.288C 26.6683 17.728 26.7882 17.176 26.9002 16.632C 27.0123 16.088 27.0682 15.648 27.0682 15.312C 27.0682 14.496 26.7802 14.088 26.2043 14.088C 25.7882 14.088 25.4203 14.296 25.1003 14.712C 24.7802 15.112 24.5242 15.64 24.3322 16.296L 22.7002 24L 19.2443 24L 21.7883 12L 25.2442 12L 24.9803 13.248C 25.7803 12.352 26.7163 11.904 27.7882 11.904C 28.6042 11.904 29.2523 12.128 29.7322 12.576C 30.2122 13.024 30.4522 13.704 30.4522 14.616C 30.4522 15.08 30.3963 15.6 30.2842 16.176C 30.1723 16.736 30.0123 17.424 29.8043 18.24C 29.6763 18.736 29.5563 19.224 29.4442 19.704C 29.3482 20.168 29.3003 20.536 29.3003 20.808C 29.3003 21.128 29.3723 21.376 29.5162 21.552C 29.6602 21.728 29.9082 21.816 30.2603 21.816C 30.7403 21.816 31.1242 21.648 31.4123 21.312C 31.7003 20.96 31.9883 20.424 32.2762 19.704L 33.2842 19.704C 32.6922 21.464 32.0043 22.648 31.2202 23.256C 30.4522 23.848 29.6522 24.144 28.8203 24.144ZM 34.6494 24.144C 33.8814 24.144 33.2574 23.904 32.7774 23.424C 32.3134 22.944 32.0814 22.224 32.0814 21.264C 32.0814 20.864 32.1454 20.344 32.2734 19.704L 33.7134 12.96L 32.9214 12.96L 33.1134 12L 33.9054 12L 34.6254 8.688L 38.1774 8.208L 37.3614 12L 38.8014 12L 38.6094 12.96L 37.1694 12.96L 35.6334 20.16C 35.5694 20.4 35.5374 20.656 35.5374 20.928C 35.5374 21.248 35.6094 21.48 35.7534 21.624C 35.9134 21.752 36.1694 21.816 36.5214 21.816C 36.9854 21.816 37.4174 21.624 37.8174 21.24C 38.2174 20.84 38.5054 20.328 38.6814 19.704L 39.6894 19.704C 39.0974 21.432 38.3374 22.608 37.4094 23.232C 36.4814 23.84 35.5614 24.144 34.6494 24.144ZM 42.1039 24.144C 40.9199 24.144 39.9999 23.84 39.3439 23.232C 38.6879 22.608 38.3599 21.64 38.3599 20.328C 38.3599 19.224 38.5759 18.008 39.0079 16.68C 39.4399 15.352 40.1439 14.208 41.1199 13.248C 42.0959 12.272 43.3359 11.784 44.8399 11.784C 46.5999 11.784 47.4799 12.552 47.4799 14.088C 47.4799 14.984 47.2239 15.808 46.7119 16.56C 46.1999 17.312 45.5199 17.92 44.6719 18.384C 43.8239 18.832 42.9199 19.088 41.9599 19.152C 41.9279 19.632 41.9119 19.952 41.9119 20.112C 41.9119 20.896 42.0479 21.432 42.3199 21.72C 42.5919 21.992 43.0319 22.128 43.6399 22.128C 44.5039 22.128 45.2399 21.928 45.8479 21.528C 46.4719 21.128 47.1519 20.52 47.8879 19.704L 48.7039 19.704C 46.9279 22.664 44.7279 24.144 42.1039 24.144ZM 42.1519 18C 42.7439 17.968 43.3039 17.76 43.8319 17.376C 44.3759 16.992 44.8079 16.504 45.1279 15.912C 45.4639 15.32 45.6319 14.696 45.6319 14.04C 45.6319 13.384 45.4319 13.056 45.0319 13.056C 44.4559 13.056 43.8879 13.56 43.3279 14.568C 42.7839 15.576 42.3919 16.72 42.1519 18ZM 49.5148 12L 52.9708 12L 52.6588 13.488C 53.2028 13.008 53.6908 12.64 54.1228 12.384C 54.5708 12.128 55.0508 12 55.5628 12C 56.0748 12 56.4748 12.176 56.7628 12.528C 57.0668 12.88 57.2188 13.304 57.2188 13.8C 57.2188 14.264 57.0668 14.672 56.7628 15.024C 56.4588 15.376 56.0348 15.552 55.4908 15.552C 55.1388 15.552 54.8988 15.472 54.7708 15.312C 54.6588 15.136 54.5708 14.888 54.5068 14.568C 54.4588 14.36 54.4108 14.208 54.3628 14.112C 54.3148 14.016 54.2268 13.968 54.0988 13.968C 53.7628 13.968 53.4748 14.04 53.2348 14.184C 53.0108 14.312 52.7148 14.544 52.3468 14.88L 50.4268 24L 46.9708 24L 49.5148 12ZM 60.3383 24.144C 59.1542 24.144 58.2343 23.84 57.5783 23.232C 56.9222 22.608 56.5942 21.64 56.5942 20.328C 56.5942 19.224 56.8102 18.008 57.2423 16.68C 57.6743 15.352 58.3782 14.208 59.3542 13.248C 60.3303 12.272 61.5702 11.784 63.0742 11.784C 64.8342 11.784 65.7143 12.552 65.7143 14.088C 65.7143 14.984 65.4583 15.808 64.9463 16.56C 64.4343 17.312 63.7543 17.92 62.9062 18.384C 62.0582 18.832 61.1543 19.088 60.1942 19.152C 60.1623 19.632 60.1463 19.952 60.1463 20.112C 60.1463 20.896 60.2822 21.432 60.5542 21.72C 60.8262 21.992 61.2663 22.128 61.8743 22.128C 62.7383 22.128 63.4743 21.928 64.0822 21.528C 64.7062 21.128 65.3862 20.52 66.1223 19.704L 66.9383 19.704C 65.1623 22.664 62.9623 24.144 60.3383 24.144ZM 60.3862 18C 60.9782 17.968 61.5383 17.76 62.0663 17.376C 62.6102 16.992 63.0423 16.504 63.3622 15.912C 63.6982 15.32 63.8662 14.696 63.8662 14.04C 63.8662 13.384 63.6662 13.056 63.2662 13.056C 62.6902 13.056 62.1222 13.56 61.5623 14.568C 61.0182 15.576 60.6263 16.72 60.3862 18ZM 68.8532 24.144C 68.0852 24.144 67.4372 24 66.9092 23.712C 66.3812 23.408 65.9892 23.024 65.7332 22.56C 65.4772 22.08 65.3492 21.584 65.3492 21.072C 65.3492 20.544 65.4772 20.088 65.7332 19.704C 65.9732 19.304 66.2692 19.016 66.6212 18.84C 67.2452 17.72 67.7892 16.592 68.2532 15.456C 68.7172 14.304 69.1572 13.064 69.5732 11.736L 73.1252 11.256C 73.2052 13.304 73.3412 15.52 73.5332 17.904C 73.6132 18.864 73.6532 19.56 73.6532 19.992C 73.6532 20.36 73.6212 20.664 73.5572 20.904C 74.3092 20.472 74.8852 20.072 75.2852 19.704L 76.2932 19.704C 75.2692 20.888 74.0452 21.888 72.6212 22.704C 72.1572 23.2 71.5812 23.568 70.8932 23.808C 70.2212 24.032 69.5412 24.144 68.8532 24.144ZM 68.0852 22.248C 68.6772 22.248 69.1732 22.072 69.5732 21.72C 69.9732 21.368 70.1732 20.8 70.1732 20.016C 70.1732 19.536 70.1252 18.864 70.0292 18C 69.8692 16.176 69.7652 14.952 69.7172 14.328C 69.3332 15.592 68.6852 17.104 67.7732 18.864C 68.1412 19.056 68.3252 19.336 68.3252 19.704C 68.3252 20.008 68.2212 20.28 68.0132 20.52C 67.8212 20.76 67.5732 20.88 67.2692 20.88C 66.9332 20.88 66.7172 20.776 66.6212 20.568C 66.6212 21.144 66.7332 21.568 66.9572 21.84C 67.1972 22.112 67.5732 22.248 68.0852 22.248ZM 77.5372 24.144C 76.7212 24.144 76.1132 23.896 75.7132 23.4C 75.3293 22.904 75.1372 22.248 75.1372 21.432C 75.1372 21.016 75.1852 20.592 75.2812 20.16L 76.8173 12.96L 76.0252 12.96L 76.2173 12L 77.0092 12L 77.7292 8.688L 81.2812 8.208C 81.1373 8.816 81.0573 9.176 81.0412 9.288C 80.9293 9.736 80.7373 10.64 80.4653 12L 81.9052 12L 81.7133 12.96L 80.2733 12.96L 78.7372 20.16C 78.6572 20.512 78.6172 20.792 78.6172 21C 78.6172 21.576 78.8973 21.864 79.4572 21.864C 79.7453 21.864 79.9533 21.84 80.0813 21.792C 79.7613 22.72 79.3853 23.344 78.9532 23.664C 78.5213 23.984 78.0493 24.144 77.5372 24.144Z"/>
</defs>
</svg>
