<svg width="52" height="19" viewBox="0 0 52 19" version="1.1" xmlns="http://www.w3.org/2000/svg" xmlns:xlink="http://www.w3.org/1999/xlink">
<title>logo</title>
<desc>Created using Figma</desc>
<g id="Canvas" transform="translate(-425 -258)">
<g id="logo">
<g id="Pin-it">
<use xlink:href="#path0_fill" transform="translate(425 252)" fill="#FFFFFF"/>
</g>
</g>
</g>
<defs>
<path id="path0_fill" d="M 5.99656 8.736L 9.54856 8.256L 7.84456 16.272C 8.61256 16.208 9.31656 15.872 9.95656 15.264C 10.6126 14.656 11.1246 13.904 11.4926 13.008C 11.8606 12.112 12.0446 11.232 12.0446 10.368C 12.0446 9.408 11.7966 8.624 11.3006 8.016C 10.8046 7.408 10.0606 7.104 9.06856 7.104C 7.11656 7.104 5.58856 7.616 4.48456 8.64C 3.39656 9.664 2.85256 11.096 2.85256 12.936C 2.85256 13.528 2.90856 13.944 3.02056 14.184C 3.13256 14.408 3.18856 14.536 3.18856 14.568C 2.32456 14.568 1.67656 14.392 1.24456 14.04C 0.828563 13.672 0.620563 13.072 0.620563 12.24C 0.620563 11.216 1.03656 10.224 1.86856 9.264C 2.71656 8.288 3.79656 7.504 5.10856 6.912C 6.42056 6.304 7.73256 6 9.04456 6C 10.3086 6 11.3646 6.216 12.2126 6.648C 13.0606 7.08 13.6846 7.656 14.0846 8.376C 14.5006 9.08 14.7086 9.864 14.7086 10.728C 14.7086 11.768 14.4206 12.784 13.8446 13.776C 13.2846 14.768 12.4766 15.584 11.4206 16.224C 10.3646 16.848 9.14856 17.16 7.77256 17.16L 7.65256 17.16L 6.18856 24L 2.73256 24L 5.99656 8.736ZM 18.2424 10.704C 17.7144 10.704 17.2664 10.52 16.8984 10.152C 16.5304 9.784 16.3464 9.336 16.3464 8.808C 16.3464 8.28 16.5304 7.832 16.8984 7.464C 17.2664 7.08 17.7144 6.888 18.2424 6.888C 18.7704 6.888 19.2184 7.08 19.5864 7.464C 19.9704 7.832 20.1624 8.28 20.1624 8.808C 20.1624 9.336 19.9704 9.784 19.5864 10.152C 19.2184 10.52 18.7704 10.704 18.2424 10.704ZM 16.6104 24.144C 15.8424 24.144 15.2184 23.904 14.7384 23.424C 14.2744 22.944 14.0424 22.224 14.0424 21.264C 14.0424 20.864 14.1064 20.344 14.2344 19.704L 15.8664 12L 19.3224 12L 17.5944 20.16C 17.5304 20.4 17.4984 20.656 17.4984 20.928C 17.4984 21.248 17.5704 21.48 17.7144 21.624C 17.8744 21.752 18.1304 21.816 18.4824 21.816C 18.9464 21.816 19.3784 21.624 19.7784 21.24C 20.1784 20.84 20.4664 20.328 20.6424 19.704L 21.6504 19.704C 21.0584 21.432 20.2984 22.608 19.3704 23.232C 18.4424 23.84 17.5224 24.144 16.6104 24.144ZM 28.8888 24.144C 28.0408 24.144 27.4248 23.888 27.0408 23.376C 26.6568 22.864 26.4648 22.216 26.4648 21.432C 26.4648 21.096 26.5048 20.72 26.5848 20.304C 26.6648 19.872 26.7448 19.456 26.8248 19.056C 26.9208 18.656 26.9848 18.4 27.0168 18.288C 27.1448 17.728 27.2648 17.176 27.3768 16.632C 27.4888 16.088 27.5448 15.648 27.5448 15.312C 27.5448 14.496 27.2568 14.088 26.6808 14.088C 26.2648 14.088 25.8968 14.296 25.5768 14.712C 25.2568 15.112 25.0008 15.64 24.8088 16.296L 23.1768 24L 19.7208 24L 22.2648 12L 25.7208 12L 25.4568 13.248C 26.2568 12.352 27.1928 11.904 28.2648 11.904C 29.0808 11.904 29.7288 12.128 30.2088 12.576C 30.6888 13.024 30.9288 13.704 30.9288 14.616C 30.9288 15.08 30.8728 15.6 30.7608 16.176C 30.6488 16.736 30.4888 17.424 30.2808 18.24C 30.1528 18.736 30.0328 19.224 29.9208 19.704C 29.8248 20.168 29.7768 20.536 29.7768 20.808C 29.7768 21.128 29.8488 21.376 29.9928 21.552C 30.1368 21.728 30.3848 21.816 30.7368 21.816C 31.1208 21.816 31.3848 21.768 31.5288 21.672C 31.4328 22.488 31.1368 23.104 30.6408 23.52C 30.1608 23.936 29.5768 24.144 28.8888 24.144ZM 32.4192 16.776L 37.2193 16.776L 36.8113 18.672L 31.9872 18.672L 32.4192 16.776ZM 42.5002 10.704C 41.9722 10.704 41.5242 10.52 41.1562 10.152C 40.7882 9.784 40.6042 9.336 40.6042 8.808C 40.6042 8.28 40.7882 7.832 41.1562 7.464C 41.5242 7.08 41.9722 6.888 42.5002 6.888C 43.0282 6.888 43.4762 7.08 43.8442 7.464C 44.2282 7.832 44.4202 8.28 44.4202 8.808C 44.4202 9.336 44.2282 9.784 43.8442 10.152C 43.4762 10.52 43.0282 10.704 42.5002 10.704ZM 40.8682 24.144C 40.1002 24.144 39.4762 23.904 38.9962 23.424C 38.5322 22.944 38.3002 22.224 38.3002 21.264C 38.3002 20.864 38.3642 20.344 38.4922 19.704L 40.1242 12L 43.5802 12L 41.8522 20.16C 41.7882 20.4 41.7562 20.656 41.7562 20.928C 41.7562 21.248 41.8282 21.48 41.9722 21.624C 42.1322 21.752 42.3882 21.816 42.7402 21.816C 43.2042 21.816 43.6362 21.624 44.0362 21.24C 44.4362 20.84 44.7242 20.328 44.9002 19.704L 45.9082 19.704C 45.3162 21.432 44.5562 22.608 43.6282 23.232C 42.7002 23.84 41.7802 24.144 40.8682 24.144ZM 47.1466 24.144C 46.3306 24.144 45.7226 23.896 45.3226 23.4C 44.9386 22.904 44.7466 22.248 44.7466 21.432C 44.7466 21.016 44.7946 20.592 44.8906 20.16L 46.4266 12.96L 45.6346 12.96L 45.8266 12L 46.6186 12L 47.3386 8.688L 50.8906 8.208C 50.7466 8.816 50.6666 9.176 50.6506 9.288C 50.5386 9.736 50.3466 10.64 50.0746 12L 51.5146 12L 51.3226 12.96L 49.8826 12.96L 48.3466 20.16C 48.2666 20.512 48.2266 20.792 48.2266 21C 48.2266 21.576 48.5066 21.864 49.0666 21.864C 49.3546 21.864 49.5626 21.84 49.6906 21.792C 49.3706 22.72 48.9946 23.344 48.5626 23.664C 48.1306 23.984 47.6586 24.144 47.1466 24.144Z"/>
</defs>
</svg>
